<svg xmlns="http://www.w3.org/2000/svg" viewBox="29.823 132.105 280.125 198.507" width="278.09px" height="194.722px">
  <ellipse style="stroke: rgb(0, 0, 0); fill: rgb(75, 198, 155);" cx="168.868" cy="231.169" rx="139.045" ry="97.361" transform="matrix(1, 0, 0, 1, 0, 1.4210854715202004e-14)"></ellipse>
  <ellipse style="fill: rgb(216, 216, 216); stroke: rgb(0, 0, 0);" cx="82.894" cy="219.533" rx="19.25" ry="26.614" transform="matrix(1, 0, 0, 1, 0, 1.4210854715202004e-14)"></ellipse>
  <ellipse style="fill: rgb(216, 216, 216); stroke: rgb(0, 0, 0);" cx="216.778" cy="217.848" rx="20.241" ry="28.43" transform="matrix(1, 0, 0, 1, 0, 1.4210854715202004e-14)"></ellipse>
  <ellipse style="stroke: rgb(0, 0, 0);" cx="88.716" cy="230.303" rx="9.815" ry="13.173"></ellipse>
  <ellipse style="stroke: rgb(0, 0, 0); stroke-width: 1;" cx="223.415" cy="229.8" rx="9.815" ry="13.173"></ellipse>
  <ellipse style="stroke: rgb(0, 0, 0); fill: rgb(242, 13, 13);" cx="153.969" cy="264.004" rx="14.642" ry="22.511"></ellipse>
  <path style="stroke: rgb(0, 0, 0); fill: rgb(217, 112, 112);" d="M 93.527 280.709 C 106.312 289.578 121.948 294.834 135.707 301.842 C 140.542 304.304 145.521 306.484 150.374 308.91 C 151.283 309.365 154.221 311.49 155.442 311.517 C 160.645 311.631 165.946 316.282 171.155 316.49 C 176.922 316.721 182.726 313.518 188.47 313.261 C 194.801 312.979 200.846 310.82 207.005 309.524 C 219.148 306.968 230.492 298.39 239.873 290.342 C 241.063 289.322 247.877 284.277 246.704 281.93 C 244.759 278.039 234.435 280.538 232.085 281.381 C 221.582 285.146 216.778 292.858 205.006 295.305 C 192.151 297.977 177.298 301.967 161.632 298.038 C 153.143 295.909 143.859 292.065 135.253 290.153 C 124.666 287.801 114.519 283.915 103.961 281.275 C 100.301 280.36 96.97 277.7 93.183 277.7"></path>
</svg>