<svg xmlns="http://www.w3.org/2000/svg" viewBox="0 0 500 500">
  <path style="fill: rgb(216, 216, 216); stroke: rgb(0, 0, 0);" d="M 128.749 66.649 C 168.892 66.649 209.034 66.649 249.177 66.649 C 262.988 66.649 276.8 66.649 290.612 66.649 C 295.813 66.649 301.014 66.649 306.215 66.649 C 307.597 66.649 308.979 66.649 310.361 66.649 C 311.671 66.649 314.684 65.399 314.29 66.649 C 312.902 71.054 300.607 80.898 298.24 83.578 C 278.453 105.983 256.303 126.129 237.462 149.438 C 231.859 156.369 219.872 167.926 218.947 177.591 C 218.155 185.875 228.513 183.735 234.46 183.735 C 254.87 183.735 273.4 175.692 292.27 168.435 C 298.778 165.932 305.037 163.655 311.625 161.445 C 314.018 160.642 318.658 157.331 319.022 159.829 C 319.788 165.083 314.682 172.921 312.918 177.717 C 308.394 190.017 310.514 198.151 298.205 202.767 C 295.931 203.62 293.629 204.407 291.293 205.071 C 285.955 206.588 280.637 208.232 275.193 209.308 C 259.683 212.374 246.981 212.894 230.937 213.096 C 188.345 213.633 141.384 217.327 99.621 205.995 C 83.7 201.675 68.396 197.902 56.141 185.735 C 52.044 181.668 53.068 175.259 53.068 170.373 C 53.068 157.27 55.728 149.01 62.211 137.869 C 65.287 132.582 68.4 128.63 72.85 124.542 C 77.04 120.691 73.75 123.245 77.114 120.624 C 77.831 120.065 80.399 119.062 79.586 119.468 C 73.929 122.291 67.92 124.926 61.775 126.593 C 58.968 127.354 51.722 130.324 56.113 124.172 C 57.714 121.929 59.789 120.065 61.644 118.027 C 64.312 115.094 66.938 112.122 69.681 109.26 C 80.67 97.79 93.767 83.587 110.715 83.587"></path>
</svg>